# xmcd CD database file
#
# Track frame offsets:
#	187
#	20560
#	42547
#	62087
#
# Disc length: 1120 seconds
#
# Revision: 0
# Processed by: cddbd v1.5.1PL0 Copyright (c) Steve Scherf et al.
# Submitted via: CDex 1.51
#
DISCID=32045e04
DTITLE=広瀬香美 - 愛があれば大丈夫
DYEAR=1992
DGENRE=Pop
TTITLE0=愛があれば大丈夫
TTITLE1=もう一度 もう一度
TTITLE2=愛があれば大丈夫 (オリジナル・カラオケ)
TTITLE3=もう一度 もう一度 (オリジナル・カラオケ)
EXTD=YEAR: 1992
EXTT0=
EXTT1=
EXTT2=
EXTT3=
PLAYORDER=
